<svg xmlns="http://www.w3.org/2000/svg" width="122" height="131" fill="none"><path fill="#FFA726" d="M12.476 87.333c6.89 0 12.476-5.585 12.476-12.476 0-6.89-5.585-12.476-12.476-12.476C5.586 62.381 0 67.967 0 74.857c0 6.89 5.586 12.476 12.476 12.476ZM99.81 87.333c6.89 0 12.475-5.585 12.475-12.476 0-6.89-5.585-12.476-12.476-12.476-6.89 0-12.476 5.586-12.476 12.476 0 6.89 5.586 12.476 12.476 12.476Z"/><path fill="#FFB74D" d="M102.929 53.024c0-39.612-93.572-25.888-93.572 0v31.19C9.357 110.102 30.255 131 56.143 131s46.786-20.898 46.786-46.786v-31.19Z"/><path fill="#FF5722" d="M56.143 3.119c-29.32 0-53.024 23.705-53.024 53.024v10.605l6.238 4.99v-9.357l65.5-30.567 28.072 30.567v9.357l6.238-4.99V56.143c0-24.953-17.779-53.024-53.024-53.024Z"/><path fill="#784719" d="M77.976 81.095a6.238 6.238 0 1 0 0-12.476 6.238 6.238 0 0 0 0 12.476ZM34.31 81.095a6.238 6.238 0 1 0 0-12.476 6.238 6.238 0 0 0 0 12.476Z"/><path fill="#757575" d="M115.405 68.62c-1.872 0-3.119 1.247-3.119 3.118V49.905C112.286 22.457 89.829 0 62.381 0H40.548c-1.872 0-3.12 1.248-3.12 3.119 0 1.871 1.248 3.12 3.12 3.12H62.38c24.017 0 43.667 19.65 43.667 43.666v31.19c0 1.872 1.247 3.12 3.119 3.12 1.871 0 3.119-1.248 3.119-3.12v6.238c0 12.165-9.669 21.834-21.834 21.834H56.144c-1.871 0-3.119 1.247-3.119 3.119 0 1.871 1.248 3.119 3.119 3.119h34.31a27.955 27.955 0 0 0 28.071-28.072V71.738c0-1.871-1.248-3.119-3.119-3.119Z"/><path fill="#37474F" d="M115.405 62.381h-3.119c-3.431 0-6.238 2.807-6.238 6.238v12.476c0 3.431 2.807 6.238 6.238 6.238h3.119c3.431 0 6.238-2.807 6.238-6.238V68.62c0-3.43-2.807-6.238-6.238-6.238ZM56.143 118.524a6.238 6.238 0 1 0 0-12.476 6.238 6.238 0 0 0 0 12.476Z"/></svg>